<svg width="192" height="29" viewBox="0 0 192 29" fill="none" xmlns="http://www.w3.org/2000/svg">
<g clip-path="url(#clip0_20_811)">
<path d="M159.458 0H130.169V29H159.458V0Z" fill="#221F20"/>
<path d="M192 0H162.712V29H192V0Z" fill="#221F20"/>
<path d="M61.8306 0V29H32.5425V0H61.8306ZM42.768 22.5556H55.3221L48.8137 6.44444H45.5594L39.051 22.5556H42.768ZM44.0263 19.3333L47.1793 11.2849L50.3323 19.3333H44.0263Z" fill="#221F20"/>
<path d="M94.3731 0V29H65.085V0H94.3731ZM82.9616 22.5556H86.9824L83.005 16.1111H86.9824V6.44444H72.4902V22.5556H75.7444V16.1111H78.9986L82.976 22.5556H82.9616ZM83.7281 9.66667V12.8889H75.7444V9.66667H83.7281Z" fill="#221F20"/>
<path d="M126.915 0V29H97.627V0H126.915ZM109.169 22.5556V16.1111L114.708 22.5556H119.481L112.408 14.7077L119.481 6.44444H114.751L109.154 12.8889V6.44444H105.9V22.5556H109.154H109.169Z" fill="#221F20"/>
<path d="M0 0V29H29.2881V0H0ZM23.8066 22.5556H20.1329V9.66667H16.4592V22.5556H12.7855V9.66667H9.11187V22.5556H5.43819V6.44444H23.7776V22.5556H23.8066Z" fill="#221F20"/>
<path d="M192 0V29H162.712V0H192ZM173.342 9.66667H184.624V6.44444H170.088V22.5556H184.624V19.3333H173.342V16.1111H183.105V12.8889H173.342V9.66667Z" fill="#F8CE47"/>
<path d="M130.169 0V29H159.458V0H130.169ZM153.976 22.5556H150.302V9.66667H146.629V22.5556H142.955V9.66667H139.281V22.5556H135.608V6.44444H153.947V22.5556H153.976Z" fill="#F8CE47"/>
</g>
<defs>
<clipPath id="clip0_20_811">
<rect width="192" height="29" fill="white"/>
</clipPath>
</defs>
</svg>
