<svg width="45" height="39" viewBox="0 0 45 39" fill="none" xmlns="http://www.w3.org/2000/svg">
<g clip-path="url(#clip0_20_801)">
<path d="M27.1143 16.1583C30.6463 16.1583 34.4382 16.1583 38.2301 16.1583C39.7785 16.1583 41.3269 16.1301 42.8697 16.1696C44.2259 16.1978 44.9719 17.0269 45.0002 18.4256C45.0228 19.8243 44.4746 20.4277 42.9149 20.3995C41.9429 20.3826 41.666 20.7436 41.5077 21.646C40.6205 26.6147 39.6598 31.5666 38.7274 36.5297C38.3036 38.7913 37.9927 39 35.6701 39C26.7187 38.9887 17.7617 39 8.81027 39.0112C7.07537 39.0112 6.67414 38.7349 6.34073 37.0373C5.34048 31.8993 4.34588 26.7614 3.40214 21.6121C3.24956 20.7774 3.00656 20.4108 2.09107 20.4052C0.576568 20.3939 -0.0450574 19.7227 0.00580281 18.4143C0.0623142 16.993 0.864776 16.1809 2.31712 16.1809C7.14319 16.1696 11.9749 16.164 16.801 16.1978L27.12 16.1752L27.1143 16.1583ZM6.90019 20.4785C7.82698 25.0863 8.75376 29.4685 9.55622 33.8789C9.78227 35.1028 10.2909 35.4637 11.4889 35.4581C18.9428 35.4186 26.3966 35.4186 33.8505 35.475C34.9016 35.4807 35.2124 35.0802 35.3819 34.1609C36.094 30.2976 36.8625 26.4455 37.6028 22.5878C37.7328 21.9223 37.8176 21.2512 37.9362 20.4841H6.90019V20.4785Z" fill="#797979"/>
<path d="M36.4894 12.8872C35.5852 12.8872 34.8223 12.2273 34.6754 11.3193C33.9747 6.96529 30.2562 3.80693 25.8314 3.80693H19.3552C14.936 3.80693 11.2119 6.96529 10.5112 11.3193C10.3642 12.2273 9.60132 12.8872 8.69714 12.8872C8.16028 12.8872 7.65168 12.656 7.30696 12.2442C6.95094 11.8269 6.79836 11.2742 6.88877 10.7271C7.87207 4.59652 13.1163 0.140991 19.3495 0.140991H25.8257C32.0589 0.140991 37.3032 4.59652 38.2978 10.7327C38.3882 11.2798 38.23 11.8325 37.874 12.2499C37.5292 12.656 37.0206 12.8928 36.4838 12.8928L36.4894 12.8872Z" fill="#797979"/>
<path d="M25.8256 0.281996C32.0362 0.281996 37.2014 4.82777 38.1564 10.7553C38.3259 11.7987 37.5404 12.7462 36.4837 12.7462C35.6416 12.7462 34.9409 12.1258 34.8053 11.2967C34.1102 6.97657 30.3465 3.66594 25.82 3.66594H19.3438C14.8229 3.66594 11.0592 6.97657 10.3585 11.2967C10.2228 12.1258 9.52774 12.7462 8.68007 12.7462C7.6233 12.7462 6.8378 11.7931 7.00733 10.7553C7.97933 4.82777 13.1445 0.281996 19.3494 0.281996H25.8256ZM25.8256 0H19.3494C13.0484 0 7.74198 4.50629 6.74173 10.7102C6.64566 11.2967 6.80954 11.8889 7.19382 12.3401C7.56679 12.78 8.11495 13.0282 8.69137 13.0282C9.66902 13.0282 10.4884 12.3176 10.6467 11.3419C11.3361 7.05553 14.998 3.94794 19.3494 3.94794H25.8256C30.177 3.94794 33.8389 7.05553 34.5284 11.3419C34.6866 12.3176 35.506 13.0282 36.4837 13.0282C37.0601 13.0282 37.6082 12.7744 37.9812 12.3401C38.3655 11.8946 38.5294 11.2967 38.4333 10.7102C37.433 4.50629 32.1323 0 25.8256 0Z" fill="#797979"/>
</g>
<defs>
<clipPath id="clip0_20_801">
<rect width="45" height="39" fill="white"/>
</clipPath>
</defs>
</svg>
