<svg width="29" height="36" viewBox="0 0 29 36" fill="none" xmlns="http://www.w3.org/2000/svg">
<g clip-path="url(#clip0_20_1465)">
<path d="M14.5173 35.9998C11.9352 35.9998 9.3506 35.9998 6.76847 35.9998C5.06878 35.9998 3.85794 34.9744 3.68497 33.2688C3.42425 30.6662 3.24375 28.0536 3.02314 25.446C2.60448 20.4399 2.17831 15.4338 1.76717 10.4277C1.73459 10.0447 1.61175 9.83563 1.2332 9.7021C0.388371 9.39977 0.0248682 8.72457 0.00481291 7.85033C-0.00521475 7.34896 -0.00020092 6.84508 0.00481291 6.34371C0.0248682 5.00842 0.726805 4.29542 2.0655 4.28787C4.08607 4.27779 6.10665 4.27023 8.12722 4.3055C8.72637 4.31558 9.03723 4.17953 9.25283 3.54716C10.03 1.26204 12.0881 -0.0329393 14.7254 -0.00018687C17.0543 0.0275268 19.0975 1.47115 19.7994 3.67061C19.9674 4.19465 20.2231 4.29794 20.6969 4.29542C22.7375 4.27779 24.7807 4.28031 26.8213 4.28283C28.2728 4.28283 28.9647 4.97315 28.9873 6.42685C28.9948 6.88791 29.0023 7.34896 28.9973 7.81002C28.9898 8.71449 28.6087 9.39221 27.7438 9.71218C27.3979 9.83815 27.27 10.017 27.24 10.3874C26.8714 15.0004 26.4904 19.611 26.1043 24.2215C25.8611 27.1415 25.6155 30.0615 25.3522 32.9815C25.1742 34.9794 24.0211 36.0023 22.013 35.9998C19.5136 35.9948 17.0142 35.9998 14.5148 35.9998H14.5173ZM14.5324 9.81799C14.219 9.81799 13.9082 9.81799 13.5948 9.81799C10.4286 9.81799 7.26233 9.83311 4.0961 9.80792C3.48441 9.80288 3.334 9.99939 3.42675 10.5789C3.5145 11.113 3.49695 11.6647 3.54207 12.2064C4.11866 19.1323 4.70027 26.0582 5.27686 32.9866C5.34454 33.8029 5.87601 34.3697 6.68574 34.3723C11.8926 34.3823 17.102 34.3823 22.3088 34.3723C23.0885 34.3723 23.645 33.8256 23.7152 33.0496C23.8656 31.3616 24.0085 29.671 24.1464 27.9805C24.6202 22.1808 25.089 16.3786 25.5628 10.5789C25.6255 9.82303 25.6305 9.82303 24.8458 9.82303C21.4089 9.82303 17.9719 9.82303 14.5349 9.82303L14.5324 9.81799ZM14.5023 8.19549C18.3329 8.19549 22.166 8.19549 25.9965 8.19549C27.4831 8.19549 27.3603 8.32398 27.3553 6.86523C27.3528 5.92549 27.3578 5.92549 26.4277 5.92549C18.6412 5.92549 10.8522 5.92549 3.06576 5.92549C1.38111 5.92549 1.67943 5.81212 1.64183 7.31117C1.62177 8.15014 1.66439 8.19549 2.50922 8.19549C6.50775 8.19549 10.5063 8.19549 14.5023 8.19549ZM14.4672 4.28787C15.5276 4.28787 16.5881 4.29542 17.651 4.28535C18.2025 4.28031 18.2903 4.12662 18.007 3.64541C17.2524 2.35799 16.1468 1.67775 14.6377 1.63996C13.0333 1.59965 11.8199 2.24462 11.0027 3.62526C10.7093 4.12158 10.8146 4.28283 11.4088 4.28787C12.4291 4.29542 13.4469 4.28787 14.4672 4.28787Z" fill="#4A4A4A"/>
<path d="M13.6652 21.6494C13.6652 18.7193 13.6652 15.7892 13.6702 12.8566C13.6702 12.6298 13.6476 12.3401 13.7705 12.194C13.9635 11.9647 14.2668 11.7077 14.5301 11.6977C14.7607 11.6876 15.0515 11.9672 15.222 12.1915C15.3423 12.3502 15.3298 12.6298 15.3298 12.8541C15.3348 18.6941 15.3348 24.5341 15.3298 30.3741C15.3298 30.6412 15.3548 30.9611 15.2245 31.1652C15.0791 31.3945 14.7657 31.6641 14.5351 31.6565C14.2718 31.6464 13.9485 31.402 13.778 31.1652C13.6401 30.9737 13.6677 30.6462 13.6652 30.3792C13.6576 27.4692 13.6602 24.5593 13.6627 21.6494H13.6652Z" fill="#4A4A4A"/>
<path d="M22.5396 14.9376C22.1536 19.6741 21.77 24.4132 21.3814 29.1497C21.3238 29.8526 20.9753 30.2129 20.4363 30.1474C19.9475 30.0869 19.6818 29.6687 19.7369 29.0035C20.1506 24.0579 20.5667 19.1123 20.9879 14.1692C21.0455 13.5015 21.3664 13.1639 21.8803 13.1967C22.3692 13.2294 22.6174 13.5872 22.5998 14.2473C22.5923 14.4766 22.5697 14.7058 22.5547 14.9376C22.5497 14.9376 22.5472 14.9376 22.5421 14.9376H22.5396Z" fill="#4A4A4A"/>
<path d="M6.44279 14.8419C6.42775 14.59 6.39516 14.3405 6.40018 14.0886C6.4102 13.5898 6.61326 13.2144 7.15977 13.2043C7.6762 13.1942 7.95697 13.489 8.0021 14.0155C8.16003 15.9152 8.32298 17.8123 8.48342 19.7094C8.73913 22.7353 8.99484 25.7611 9.25054 28.7844C9.26057 28.8877 9.2706 28.9935 9.2731 29.0968C9.29817 29.7166 9.02742 30.097 8.53105 30.1424C8.04973 30.1877 7.68121 29.835 7.62606 29.2354C7.53832 28.3183 7.47314 27.3987 7.39793 26.4816C7.08206 22.5992 6.76619 18.7168 6.45032 14.8369C6.44781 14.8369 6.4453 14.8369 6.44279 14.8369V14.8419Z" fill="#4A4A4A"/>
</g>
<defs>
<clipPath id="clip0_20_1465">
<rect width="29" height="36" fill="white"/>
</clipPath>
</defs>
</svg>
