<svg width="51" height="51" viewBox="0 0 51 51" fill="none" xmlns="http://www.w3.org/2000/svg">
<g clip-path="url(#clip0_24_1820)">
<path d="M47.9915 51H3.00248C1.34449 51 0 49.5638 0 47.7976C0 32.9346 0 18.0715 0 3.20851C0 1.43619 1.34449 0 3.00248 0C17.9968 0 32.9972 0 47.9915 0C49.6495 0 50.994 1.43619 50.994 3.20851C50.994 18.0715 50.994 32.9346 50.994 47.7976C50.994 49.5699 49.6495 51.0061 47.9915 51.0061V51Z" fill="black"/>
<path d="M15.338 17.6132H35.5656C35.3787 17.3626 35.2521 17.1854 35.1134 17.0143C32.4606 13.8424 29.7958 10.6828 27.155 7.49874C26.9139 7.20539 26.7209 6.78981 26.6908 6.4109C26.6486 5.92199 26.944 5.49419 27.4324 5.33529C27.9569 5.16417 28.4573 5.2375 28.8492 5.70197C29.8319 6.87537 30.8267 8.04266 31.8155 9.21606C34.0583 11.8929 36.3072 14.5697 38.5379 17.2587C38.7912 17.5582 39.0564 17.656 39.4302 17.6621C40.5215 17.6804 41.6369 17.6193 42.704 17.8271C44.0726 18.0899 44.9951 19.4038 45.0192 20.8095C45.0313 21.3778 45.0192 21.9401 45.0192 22.5084C45.0071 23.9385 44.2957 24.9102 43.0417 25.4603C42.6317 25.6375 42.4568 25.8575 42.4026 26.2975C42.276 27.2632 42.1132 28.2288 41.9323 29.1821C41.86 29.5427 41.9805 29.7505 42.2398 29.9766C44.2776 31.749 45.2121 33.9857 45.0132 36.7237C44.7961 39.6877 42.5232 42.5662 39.7136 43.3974C39.3338 43.5074 38.9419 43.6785 38.6465 43.9291C37.6999 44.7113 36.6448 44.9986 35.433 44.9925C30.1153 44.9558 24.7977 44.968 19.48 44.968C18.2079 44.968 16.9357 44.9313 15.6636 44.9925C13.6016 45.0841 11.8291 43.5135 11.4312 41.4234C10.4786 36.3814 9.49584 31.3517 8.53722 26.3159C8.45884 25.9064 8.29003 25.6558 7.87402 25.4786C6.61394 24.9408 5.88442 23.9874 5.86634 22.5512C5.86031 22.0073 5.85428 21.4573 5.86634 20.9134C5.90251 19.0433 7.31935 17.6437 9.17027 17.656C9.942 17.656 10.7137 17.6437 11.4794 17.6682C11.8653 17.6804 12.1185 17.546 12.3657 17.2465C15.5249 13.4635 18.6902 9.68053 21.8735 5.91588C22.1087 5.64086 22.4584 5.40251 22.802 5.30473C23.2964 5.16417 23.7607 5.3414 24.038 5.83031C24.3274 6.34368 24.2852 6.85093 23.9174 7.30317C23.2783 8.08544 22.6212 8.85548 21.976 9.62552C19.884 12.1251 17.7858 14.6247 15.6937 17.1243C15.5852 17.2526 15.5008 17.3932 15.3501 17.6071L15.338 17.6132ZM10.9609 25.7842C10.985 25.9981 10.985 26.1081 11.0091 26.2181C11.9617 31.095 12.9083 35.972 13.8669 40.8489C14.1081 42.0895 14.6266 42.5234 15.8324 42.5234C21.3611 42.5295 26.8897 42.5357 32.4184 42.5418C32.5812 42.5418 32.75 42.5112 32.9128 42.4929C32.961 42.4256 33.0032 42.3645 33.0515 42.2973C32.9007 42.2179 32.7319 42.1567 32.6053 42.0467C29.7837 39.7305 28.9457 35.8803 30.5373 32.5312C32.0326 29.3716 35.6138 27.6482 39.1047 28.4304C39.4905 28.516 39.581 28.3693 39.6292 28.0515C39.7015 27.5504 39.786 27.0493 39.8824 26.5542C40.0392 25.7597 40.0452 25.7536 39.2252 25.7536C30.0369 25.7536 20.8486 25.7536 11.6603 25.7536C11.4553 25.7536 11.2443 25.772 10.9669 25.7842H10.9609ZM25.4669 20.18C20.0709 20.18 14.6809 20.18 9.28483 20.18C9.1341 20.18 8.95323 20.1555 8.82662 20.2167C7.94637 20.6689 8.33826 21.5062 8.27194 22.1968C8.22371 22.6796 8.39252 23.1074 8.92308 23.2235C9.18233 23.2785 9.45967 23.2602 9.73098 23.2602C20.1311 23.2602 30.5313 23.2602 40.9315 23.2602C42.5352 23.2602 42.6257 23.1685 42.6196 21.5428C42.6196 20.3572 42.4508 20.18 41.2993 20.18C36.0238 20.18 30.7423 20.18 25.4669 20.18ZM37.3924 30.7283C34.5708 30.7039 32.2134 33.0507 32.1893 35.9047C32.1592 38.8016 34.4623 41.2522 37.2115 41.2645C40.2442 41.2767 42.5593 39.0216 42.5955 36.027C42.6257 33.1118 40.3105 30.7528 37.3924 30.7283Z" fill="white"/>
<path d="M19.9202 38.0437C19.9323 38.7893 19.5042 39.3088 18.8531 39.3944C18.1959 39.4799 17.6232 39.0582 17.4966 38.3249C17.2373 36.7848 17.0082 35.2447 16.7731 33.7046C16.6223 32.7023 16.4776 31.7001 16.3329 30.6978C16.3149 30.5817 16.2968 30.4656 16.2847 30.3494C16.2124 29.5794 16.6163 28.9866 17.2795 28.8705C17.9548 28.7544 18.5818 29.231 18.7205 30.0011C18.8531 30.7467 18.9616 31.5045 19.0701 32.2562C19.3415 34.0652 19.6188 35.8803 19.8901 37.6893C19.9082 37.8237 19.9142 37.9582 19.9263 38.0499L19.9202 38.0437Z" fill="white"/>
<path d="M26.6547 34.0957C26.6547 35.4403 26.6547 36.7848 26.6547 38.1354C26.6547 38.7221 26.3773 39.1438 25.8227 39.3332C25.3042 39.5105 24.7314 39.3332 24.4601 38.8566C24.3154 38.5999 24.243 38.2699 24.243 37.9704C24.231 35.3975 24.237 32.8185 24.243 30.2455C24.243 29.4083 24.7615 28.8399 25.473 28.8521C26.1724 28.8643 26.6547 29.4144 26.6607 30.2272C26.6667 31.5167 26.6607 32.8001 26.6607 34.0896L26.6547 34.0957Z" fill="white"/>
<path d="M37.4106 32.5862C38.1039 32.5862 38.5983 33.1424 38.6284 33.943C38.6445 34.4726 38.9138 34.7456 39.4363 34.7619C40.2201 34.7863 40.7748 35.2997 40.7748 35.9964C40.7748 36.6748 40.2442 37.1881 39.4906 37.237C38.944 37.2778 38.6566 37.5793 38.6284 38.1415C38.5983 38.8566 38.0979 39.3883 37.4407 39.4066C36.7655 39.4249 36.259 38.9482 36.1806 38.221C36.1686 38.1232 36.1505 38.0254 36.1686 37.9276C36.247 37.3898 36.042 37.1881 35.4993 37.237C34.9025 37.2859 34.384 37.0965 34.1247 36.4914C33.763 35.6297 34.3357 34.7925 35.3004 34.7497C35.843 34.7252 36.1284 34.4441 36.1565 33.9063C36.2047 33.0996 36.6931 32.5801 37.4045 32.5801L37.4106 32.5862Z" fill="white"/>
</g>
<defs>
<clipPath id="clip0_24_1820">
<rect width="51" height="51" fill="white"/>
</clipPath>
</defs>
</svg>
